# xmcd
#
# Track frame offsets:
#	150
#	9387
#	23014
#	43701
#	53825
#	66352
#	81511
#	90900
#	100258
#	112530
#	122960
#	142779
#
# Disc length: 2155 seconds
#
# Revision: 1
# Processed by: cddbd v1.5.2PL0 Copyright (c) Steve Scherf et al.
# Submitted via: audiograbber 1.82.02
#
DISCID=8d08690c
DTITLE=The Nines - Gran Jukle's Field
DYEAR=2007
DGENRE=Rock
TTITLE0=Insanity (The Sanest Thing You've Got)
TTITLE1=Don't Be A Fool
TTITLE2=Dance Just For Me
TTITLE3=She Hijacked Me
TTITLE4=Chantel Elizabeth
TTITLE5=I Am Lost
TTITLE6=Virginia
TTITLE7=Safe
TTITLE8=Monotony's Song
TTITLE9=Find Our Way Back Home
TTITLE10=Eileen
TTITLE11=Gran Jukle's Field
EXTD=
EXTT0=
EXTT1=
EXTT2=
EXTT3=
EXTT4=
EXTT5=
EXTT6=
EXTT7=
EXTT8=
EXTT9=
EXTT10=
EXTT11=
PLAYORDER=
